PathFileType	4	(X/Y/Z)	Run_400 02
DataRate	CameraRate	NumFrames	NumMarkers	Units	OrigDataRate	OrigDataStartFrame	OrigNumFrames
100	100	4	42	mm	100	16	128
Frame#	Time	RASI			LPSI			RPSI			RTH1			RTH2			RTH3			LTH1			LTH2			LTH3			RTB1			RTB2			RTB3			LTB1			LTB2			LTB3			RCAL			RTOE			RMT5			LCAL			LTOE			LMT5			LACR			RACR			CLAV			C7			RUA1			RUA2			RUA3			RLEL			RMEL			LUA2			LUA3			LLEL			LMEL			RFAsuperior			RFAradius			RFAulna			LFAsuperior			LFAradius			LFAulna			LUA1			LASI			
		X1	Y1	Z1	X2	Y2	Z2	X3	Y3	Z3	X4	Y4	Z4	X5	Y5	Z5	X6	Y6	Z6	X7	Y7	Z7	X8	Y8	Z8	X9	Y9	Z9	X10	Y10	Z10	X11	Y11	Z11	X12	Y12	Z12	X13	Y13	Z13	X14	Y14	Z14	X15	Y15	Z15	X16	Y16	Z16	X17	Y17	Z17	X18	Y18	Z18	X19	Y19	Z19	X20	Y20	Z20	X21	Y21	Z21	X22	Y22	Z22	X23	Y23	Z23	X24	Y24	Z24	X25	Y25	Z25	X26	Y26	Z26	X27	Y27	Z27	X28	Y28	Z28	X29	Y29	Z29	X30	Y30	Z30	X31	Y31	Z31	X32	Y32	Z32	X33	Y33	Z33	X34	Y34	Z34	X35	Y35	Z35	X36	Y36	Z36	X37	Y37	Z37	X38	Y38	Z38	X39	Y39	Z39	X40	Y40	Z40	X41	Y41	Z41	X42	Y42	Z42	

1	0.65	1126.155056	1025.035857	-232.201276	981.921881	1070.668528	-423.252457	966.081863	1072.659743	-329.746389	1116.880361	860.538037	-172.655885	1188.084195	778.202525	-188.461401	1174.213319	638.197536	-204.670277	1044.861706	853.389878	-537.902546	1043.508404	713.429313	-493.936414	925.1487550000001	636.918375	-495.577928	1324.553406	417.949462	-283.084556	1311.210302	303.61651	-246.251077	1357.535424	248.128989	-312.082119	722.046126	436.942874	-418.701416	657.704755	444.63064	-469.122212	583.640732	408.539941	-414.043088	1289.51454	96.78260299999999	-321.532673	1496.834094	212.142317	-328.367856	1498.679018	171.292973	-257.240735	451.58877	485.687706	-433.503277	405.828516	237.114787	-294.2175	402.292651	262.511196	-418.337265	1209.118536	1547.86002	-480.504818	1128.758831	1519.143764	-165.046925	1197.060358	1465.029219	-289.266565	1108.608556	1570.087154	-340.625209	1010.378892	1447.841717	-102.31001	954.56535	1472.461365	-137.310943	922.126653	1414.336742	-103.65455	848.689148	1365.775653	-101.645505	843.640776	1372.432003	-197.863844	1113.756351	1418.435339	-606.9584610000001	1156.102812	1349.660504	-640.154888	1138.923107	1279.618533	-665.329085	1063.625739	1267.871362	-606.6428560000001	928.585716	1328.707521	-100.337243	1078.863148	1260.669456	-149.281619	1041.221047	1204.08894	-128.269158	1205.268387	1265.976116	-606.887108	1283.970129	1299.002562	-448.526523	1297.371862	1228.775551	-459.678335	1196.27658	1454.938772	-580.151427	1151.744658	1003.319998	-483.431667	
2	0.66	1127.627194	1020.873075	-232.832362	982.443543	1065.138252	-422.945851	966.890385	1067.002482	-328.98599	1116.888997	852.697178	-172.469968	1186.716341	768.279647	-186.05226	1171.990112	630.67218	-204.607026	1048.508236	848.895202	-538.4015020000001	1049.767614	708.498	-497.140638	934.619697	628.605474	-497.348005	1317.562012	407.973741	-283.527795	1302.618816	294.054462	-245.482525	1346.769803	237.432366	-311.343931	730.900932	436.46989	-420.40194	666.7411540000001	450.934645	-469.667354	590.610321	419.399949	-415.046548	1275.96555	88.352233	-319.359125	1485.207094	199.059857	-329.093223	1487.293974	158.200208	-257.994168	464.776353	507.771944	-430.70742	402.113117	259.666987	-302.302762	399.369111	288.664067	-424.236675	1208.634388	1542.853497	-480.582967	1131.988397	1512.309228	-163.413634	1198.098971	1459.009927	-289.005907	1109.313188	1564.522856	-338.655125	1016.489268	1437.049292	-97.804457	958.701911	1459.434932	-130.704985	929.366942	1399.807018	-96.908244	858.203444	1348.648977	-93.094154	849.936042	1355.152239	-188.696406	1107.299166	1414.992293	-604.92576	1148.106464	1345.845759	-640.480336	1129.664973	1276.410345	-665.321175	1056.462151	1265.208496	-605.5078150000001	938.658989	1313.171778	-93.973645	1088.797842	1247.957413	-146.835308	1052.741817	1190.826452	-124.377919	1196.398884	1257.250397	-609.569705	1280.923743	1279.629437	-451.758252	1290.679995	1209.54589	-465.908352	1190.694028	1450.468623	-580.669224	1152.542124	998.522678	-482.177349	
3	0.67	1129.291623	1015.342696	-233.093285	982.917084	1058.746168	-422.450955	967.875277	1060.347839	-328.27005	1117.151188	844.919452	-172.171774	1186.934372	761.09384	-183.45747	1172.326612	623.344695	-206.724639	1051.76811	843.321524	-538.814303	1056.367857	702.510702	-500.09457	944.39516	619.136511	-499.505313	1308.78552	395.866981	-283.933076	1289.969622	282.432392	-245.192557	1331.926107	224.0806	-310.870029	741.958846	434.843987	-422.860009	678.305714	455.944818	-470.528307	600.80082	428.565847	-416.396292	1255.093401	82.931274	-317.999823	1469.095018	179.425276	-328.622189	1468.966135	137.695829	-257.937801	481.227358	527.251784	-426.186976	403.293016	277.565663	-311.955201	401.532425	312.888051	-431.094995	1208.063154	1536.713191	-480.45503	1134.788674	1504.370732	-161.690466	1199.033968	1451.799419	-288.720742	1109.829135	1557.914937	-336.632956	1022.837701	1424.571955	-93.21613600000001	963.035154	1444.714219	-123.463477	937.145899	1383.443446	-89.914136	868.52761	1329.824276	-84.125906	856.530981	1336.062692	-178.954258	1099.966745	1410.441124	-602.4463019999999	1139.066252	1340.876557	-640.283916	1119.296676	1272.1529	-664.729682	1048.386417	1261.434707	-603.532707	949.34185	1295.875937	-87.01114800000001	1099.224753	1233.623519	-144.132176	1064.82467	1175.925875	-120.410661	1186.429016	1247.333818	-611.987288	1276.682501	1258.391813	-455.787072	1282.601403	1188.846857	-473.018996	1184.1763	1445.194919	-581.189002	1153.290246	993.089588	-481.011902	
4	0.68	1130.847731	1008.307061	-233.033428	982.848325	1051.658243	-421.737133	968.635933	1053.083722	-327.754298	1117.467541	837.956126	-172.229971	1187.622006	756.4718	-182.28488	1173.295386	615.962519	-209.564163	1054.395054	836.579086	-538.945834	1063.532253	695.327769	-502.771231	954.32133	608.7751960000001	-501.817803	1299.465695	383.16861	-283.932367	1274.387474	270.391724	-245.743185	1314.646237	210.053681	-311.29699	754.894596	432.087278	-426.274123	692.116119	459.550171	-471.762858	613.827667	435.875348	-418.18522	1228.973825	82.058986	-318.157927	1449.823269	154.292693	-327.215483	1444.825778	111.356729	-257.129589	499.966392	543.582969	-420.628004	409.120234	290.734563	-322.046296	409.053516	334.297066	-438.391998	1207.376101	1529.608739	-480.120026	1137.24848	1495.237655	-159.99299	1199.960351	1443.47664	-288.536465	1110.166033	1550.34348	-334.618596	1029.447569	1410.580198	-88.612832	967.61303	1428.462403	-115.735974	945.441559	1365.585474	-82.687425	879.598444	1309.578282	-74.882024	863.464806	1315.395119	-168.693034	1091.905362	1404.744472	-599.600384	1129.191794	1334.681765	-639.4609359999999	1108.002415	1266.81027	-663.685897	1039.740469	1256.445758	-600.947917	960.727132	1277.092797	-79.606623	1110.092696	1217.804288	-141.249373	1077.485032	1159.459747	-116.568263	1175.567131	1236.373463	-614.25701	1271.042879	1235.563696	-460.527141	1273.116119	1166.81759	-481.030136	1176.713113	1438.991002	-581.4268980000001	1153.882892	987.142796	-480.484295	
